<svg width="21" height="30" viewBox="0 0 21 30" fill="none" xmlns="http://www.w3.org/2000/svg">
<path d="M18.75 4.79433C20.25 6.71714 21 8.49204 21 10.5628C21 13.0772 19.95 15.4437 17.4 18.1061C14.55 21.0642 12 24.3182 12 27.5722C12 28.1638 12.15 28.7555 12.3 29.495C12.3 29.6429 12.3 29.7908 12.15 29.9387C12 30.0866 11.85 29.9387 11.85 29.7908C10.35 27.868 9.6 26.0931 9.6 24.0224C9.6 21.508 10.65 19.1414 13.2 16.4791C16.05 13.5209 18.6 10.2669 18.6 7.01295C18.6 6.42132 18.45 5.82969 18.3 5.09015C18.3 4.94224 18.3 4.79433 18.45 4.64642C18.6 4.64642 18.6 4.64642 18.75 4.79433ZM7.05 0.357082C8.1 1.68826 8.55 3.16734 8.55 4.49851C8.55 6.42132 7.65 8.19622 5.85 10.119C3.75 12.3377 1.8 14.8521 1.8 17.2186C1.8 17.6623 1.95 18.254 2.1 18.5498C2.1 18.6977 2.1 18.6977 1.95 18.8456C1.8 18.9935 1.65 18.8456 1.65 18.8456C0.45 17.3665 0 15.8874 0 14.5563C0 12.6335 0.9 10.8586 2.7 8.93576C4.8 6.71714 6.75 4.2027 6.75 1.83616C6.75 1.39244 6.6 0.800807 6.45 0.50499V0.209174C6.75 0.209174 6.9 0.209174 7.05 0.357082ZM7.65 11.8939C10.5 8.93576 13.05 5.68178 13.05 2.4278C13.05 1.83616 12.9 1.24453 12.75 0.50499C12.75 0.357082 12.75 0.209174 12.9 0.0612656C13.05 -0.0866427 13.2 0.0612656 13.2 0.209174C14.7 2.13198 15.45 3.90688 15.45 5.9776C15.45 8.49204 14.4 10.8586 11.85 13.5209C9 16.4791 6.45 19.7331 6.45 22.987C6.45 23.5787 6.6 24.1703 6.75 24.9099C6.75 25.0578 6.75 25.2057 6.6 25.3536C6.45 25.5015 6.3 25.3536 6.3 25.2057C4.8 23.2829 4.05 21.508 4.05 19.4372C4.05 16.9228 5.1 14.5563 7.65 11.8939Z" fill="black"/>
</svg>
