<svg width="100" height="100" viewBox="0 0 100 100" fill="none" xmlns="http://www.w3.org/2000/svg">
<g clip-path="url(#clip0_102_2)">
<rect width="100" height="100" rx="10" fill="black"/>
<path d="M36.5 52.8V80.7C36.5 81.3 36.7333 81.6333 37.2 81.7C40.5333 82.2333 43.8333 82.5 47.1 82.5C60.9667 82.5 67.9 77.1 67.9 66.3C67.9 56.7 59.6333 51.9 43.1 51.9H37.3C36.7667 51.9 36.5 52.2 36.5 52.8ZM36.5 22.3V44.7C36.5 45.2333 36.7667 45.5 37.3 45.5H43.1C57.6333 45.5 64.9 41.2333 64.9 32.7C64.9 28.5667 63.4 25.5 60.4 23.5C57.4 21.5 52.6333 20.5 46.1 20.5C43.2333 20.5 40.3 20.7667 37.3 21.3C36.7667 21.4333 36.5 21.7667 36.5 22.3ZM34.1 88.3C32.5 88.1 31.1667 87.4 30.1 86.2C29.0333 84.9333 28.5 83.4667 28.5 81.8V21.2C28.5 19.5333 29 18.1 30 16.9C31.0667 15.6333 32.4 14.9 34 14.7C37.6667 14.2333 41.7 14 46.1 14C63.7 14 72.5 19.9 72.5 31.7C72.5 35.7667 71.1333 39.3 68.4 42.3C65.7333 45.2333 62.1 47.2 57.5 48.2C57.4333 48.2 57.4 48.2333 57.4 48.3C57.4 48.3667 57.4667 48.4 57.6 48.4C63.3333 49.3333 67.8 51.5 71 54.9C74.2 58.2333 75.8 62.2667 75.8 67C75.8 81.6667 66.2333 89 47.1 89C42.3667 89 38.0333 88.7667 34.1 88.3Z" fill="white"/>
</g>
<defs>
<clipPath id="clip0_102_2">
<rect width="100" height="100" rx="10" fill="white"/>
</clipPath>
</defs>
</svg>
